# xmcd
#
# Track frame offsets: 
#        150
#        10087
#        30537
#        65375
#        76512
#        93862
#        110412
#        125762
#        152337
#        160062
#
# Disc length: 2495 seconds
#
# Revision: 3
# Processed by: cddbd v1.5.1PL2 Copyright (c) Steve Scherf et al.
# Submitted via: ExactAudioCopy v0.95a5
#
DISCID=6309bd0a
DTITLE=Radio City Music Hall - Songs Of Christmas
DYEAR=1991
DGENRE=Christmas
TTITLE0=A Christmas Fanfare
TTITLE1=Christmas Is Coming
TTITLE2=A New York Christmas
TTITLE3=Sing A Little Song Of Christmas
TTITLE4=A Christmas Sleigh Ride
TTITLE5=Ringing Of The Bells - Carol Of The Bells
TTITLE6=A Children's Christmas
TTITLE7=Christmas Classics
TTITLE8=One Solitary Life (Narrated By Robert Powell)
TTITLE9=The Glory Of Christmas
EXTD=
EXTT0=
EXTT1=
EXTT2=
EXTT3=
EXTT4=
EXTT5=
EXTT6=
EXTT7=
EXTT8=
EXTT9=
PLAYORDER=
